<svg id="Layer_1" data-name="Layer 1" xmlns="http://www.w3.org/2000/svg" viewBox="0 0 16 16"><title>Readdocument_16</title><rect x="1" y="3" width="13" height="12" fill="#fff"/><path d="M14,3V15H1V3H14m0-1H1A1,1,0,0,0,0,3V15a1,1,0,0,0,1,1H14a1,1,0,0,0,1-1V3a1,1,0,0,0-1-1h0Z" fill="#798288"/><path d="M12.5,13.61c-3.62-.06-5,1.89-5,1.89V2.5a7.64,7.64,0,0,1,5-2V13.61Z" fill="#fff"/><path d="M12,1.1v12a8.61,8.61,0,0,0-4,1.32V3a6.84,6.84,0,0,1,4-1.9M13,0A8.37,8.37,0,0,0,7,2.5V16a11.1,11.1,0,0,1,6-2V0h0Z" fill="#798288"/><path d="M2.5,13.61c3.63-.06,5,1.89,5,1.89V2.5a7.64,7.64,0,0,0-5-2V13.61Z" fill="#fff"/><path d="M3,1.1A6.84,6.84,0,0,1,7,3V14.38a8.61,8.61,0,0,0-4-1.32V1.1M2,0V14a11.1,11.1,0,0,1,6,2V2.5A8.37,8.37,0,0,0,2,0H2Z" fill="#798288"/></svg>